<svg width="124" height="124" viewBox="0 0 124 124" fill="none" xmlns="http://www.w3.org/2000/svg">
<g clip-path="url(#clip0_76_2)">
<rect width="124" height="124" rx="26" fill="#0E338A"/>
<g clip-path="url(#clip1_76_2)">
<path d="M61.951 124.049C96.1927 124.049 123.951 96.2905 123.951 62.0488C123.951 27.8072 96.1927 0.0488281 61.951 0.0488281C27.7094 0.0488281 -0.0489502 27.8072 -0.0489502 62.0488C-0.0489502 96.2905 27.7094 124.049 61.951 124.049Z" fill="#0E338A"/>
<path fill-rule="evenodd" clip-rule="evenodd" d="M43.2402 52.4934L73.1327 39.6457C75.4485 38.6502 78.1578 39.7309 79.1535 42.0465L88.8906 64.7029C89.8857 67.0185 88.8054 69.728 86.4894 70.7233L56.5969 83.5708C54.2813 84.5659 51.5722 83.4856 50.5769 81.1696L40.8394 58.5134C39.8441 56.1972 40.9242 53.4887 43.2402 52.4934ZM57.1227 71.8226L62.2369 63.9218L66.1709 64.6438L68.3547 61.2939L77.6074 63.0184C77.7168 63.0388 77.8229 62.9745 77.8557 62.868C77.8881 62.7615 77.8363 62.6491 77.7342 62.6044C72.1351 60.1543 69.54 58.9234 69.9429 58.9182L74.0183 51.0333C74.0697 50.9341 74.0383 50.8132 73.9448 50.7516C73.8518 50.69 73.7282 50.7084 73.6569 50.7946L64.7856 61.5299L64.7831 61.5226L50.9909 60.5559C50.8792 60.5482 50.7804 60.6251 50.761 60.7352C50.7417 60.8454 50.8076 60.9513 50.9151 60.9823L59.4221 63.4417C59.7073 63.1522 58.8097 65.8795 56.735 71.6301C56.6974 71.7347 56.7433 71.8498 56.8428 71.8991C56.9426 71.9488 57.0621 71.9158 57.1227 71.8226Z" fill="#FEFEFE"/>
<path fill-rule="evenodd" clip-rule="evenodd" d="M34.9719 72.1652L50.6555 65.4361C52.2652 64.7495 53.9062 68.5863 52.3037 69.2902L36.6253 76.0074C35.0101 76.7069 33.3748 72.8572 34.9719 72.1652Z" fill="#FEFEFE"/>
<path fill-rule="evenodd" clip-rule="evenodd" d="M41.8418 77.2874L53.6129 72.2288C55.2227 71.5421 56.8759 75.3843 55.2661 76.0707L43.4958 81.129C41.8808 81.8283 40.2328 77.9735 41.8418 77.2874Z" fill="#FEFEFE"/>
<path fill-rule="evenodd" clip-rule="evenodd" d="M26.5938 64.2003L38.4325 59.1123C40.0421 58.4257 38.3889 54.5835 36.7789 55.2703L24.9405 60.3581C23.3311 61.0448 24.9844 64.886 26.5938 64.2003Z" fill="#FEFEFE"/>
<path fill-rule="evenodd" clip-rule="evenodd" d="M35.4948 88.0872L47.1443 83.0803C48.7592 82.382 50.4072 86.236 48.7976 86.9225L37.1482 91.9291C35.5387 92.615 33.8854 88.7729 35.4948 88.0872Z" fill="#FEFEFE"/>
<path fill-rule="evenodd" clip-rule="evenodd" d="M23.7297 73.4866L39.3955 66.7641C41.0105 66.0656 39.3572 62.2234 37.7477 62.9093L22.0764 69.6447C20.4616 70.3432 22.1149 74.1852 23.7297 73.4866Z" fill="#FEFEFE"/>
<path fill-rule="evenodd" clip-rule="evenodd" d="M62.2369 63.9217L66.1709 64.6438L68.3548 61.2941L77.6074 63.0182C77.717 63.0388 77.8231 62.9745 77.8557 62.868C77.8881 62.7615 77.8363 62.6489 77.7344 62.6044C72.1349 60.1543 69.54 58.9236 69.9429 58.9182L74.0183 51.0334C74.0697 50.9341 74.0383 50.8132 73.9448 50.7516C73.8516 50.69 73.7282 50.7084 73.6571 50.7948L64.7858 61.5299L64.7831 61.5226L50.9909 60.5559C50.8792 60.548 50.7804 60.6249 50.7611 60.7352C50.7417 60.8454 50.8077 60.9513 50.9151 60.9823L59.4221 63.4416C59.7074 63.1523 58.8099 65.8795 56.735 71.6301C56.6974 71.7347 56.7433 71.8498 56.8429 71.8991C56.9426 71.9488 57.0621 71.916 57.1228 71.8226L62.2369 63.9217Z" fill="#F57000"/>
</g>
</g>
<defs>
<clipPath id="clip0_76_2">
<rect width="124" height="124" rx="26" fill="white"/>
</clipPath>
<clipPath id="clip1_76_2">
<rect width="124" height="124" fill="white"/>
</clipPath>
</defs>
</svg>
