<svg width="16" height="16" viewBox="0 0 16 16" fill="none" xmlns="http://www.w3.org/2000/svg">
<g clip-path="url(#clip0_76_2)">
<path fill-rule="evenodd" clip-rule="evenodd" d="M5.14696 5.11726L12.1965 2.08738C12.7426 1.85261 13.3816 2.10747 13.6164 2.65356L15.9127 7.99661C16.1474 8.5427 15.8926 9.18168 15.3464 9.4164L8.29687 12.4462C7.75078 12.6809 7.11189 12.4261 6.87717 11.88L4.58078 6.53696C4.34606 5.99073 4.60078 5.35198 5.14696 5.11726ZM8.42088 9.67565L9.62694 7.81242L10.5547 7.98267L11.0697 7.19267L13.2518 7.59937C13.2776 7.60417 13.3026 7.58901 13.3103 7.5639C13.318 7.53879 13.3058 7.51228 13.2817 7.50173C11.9612 6.92393 11.3492 6.63365 11.4442 6.63242L12.4054 4.77291C12.4175 4.74952 12.4101 4.72101 12.388 4.70649C12.3661 4.69197 12.3369 4.69631 12.3201 4.71663L10.228 7.24832L10.2274 7.24661L6.97481 7.01862C6.94848 7.01681 6.92517 7.03496 6.9206 7.06093C6.91603 7.0869 6.9316 7.11187 6.95693 7.1192L8.96313 7.69918C9.03041 7.63091 8.81871 8.27409 8.32945 9.63027C8.32058 9.65493 8.33139 9.68207 8.35487 9.6937C8.3784 9.70542 8.40659 9.69764 8.42088 9.67565Z" fill="#0E338A"/>
<path fill-rule="evenodd" clip-rule="evenodd" d="M3.19704 9.75662L6.8957 8.1697C7.2753 8.00778 7.66231 8.9126 7.28439 9.0786L3.58695 10.6627C3.20604 10.8277 2.82038 9.91982 3.19704 9.75662Z" fill="#0E338A"/>
<path fill-rule="evenodd" clip-rule="evenodd" d="M4.81713 10.9645L7.5931 9.77149C7.97274 9.60956 8.3626 10.5157 7.98296 10.6775L5.20717 11.8704C4.82631 12.0353 4.43767 11.1263 4.81713 10.9645Z" fill="#0E338A"/>
<path fill-rule="evenodd" clip-rule="evenodd" d="M1.22103 7.87794L4.01292 6.67804C4.39252 6.51611 4.00265 5.61001 3.62297 5.77199L0.831119 6.97185C0.45157 7.13377 0.84148 8.03964 1.22103 7.87794Z" fill="#0E338A"/>
<path fill-rule="evenodd" clip-rule="evenodd" d="M3.32038 13.5114L6.06766 12.3307C6.44852 12.166 6.83717 13.0749 6.45757 13.2367L3.71029 14.4175C3.33074 14.5792 2.94083 13.6731 3.32038 13.5114Z" fill="#0E338A"/>
<path fill-rule="evenodd" clip-rule="evenodd" d="M0.545785 10.0682L4.24025 8.48277C4.62111 8.31804 4.2312 7.41195 3.85165 7.57369L0.155875 9.1621C-0.224941 9.32684 0.164969 10.2329 0.545785 10.0682Z" fill="#0E338A"/>
<path fill-rule="evenodd" clip-rule="evenodd" d="M9.62681 7.81244L10.5546 7.98274L11.0696 7.19278L13.2516 7.59939C13.2775 7.60423 13.3025 7.58907 13.3102 7.56396C13.3178 7.53885 13.3056 7.51229 13.2816 7.5018C11.9611 6.92399 11.3491 6.63375 11.4441 6.63249L12.4052 4.77302C12.4173 4.74958 12.4099 4.72108 12.3879 4.70655C12.3659 4.69203 12.3368 4.69637 12.32 4.71673L10.2279 7.24839L10.2273 7.24667L6.97467 7.01868C6.94834 7.01683 6.92504 7.03497 6.92047 7.06099C6.9159 7.08696 6.93147 7.11193 6.9568 7.11926L8.963 7.69924C9.03027 7.63101 8.81862 8.27415 8.32931 9.63033C8.32045 9.65499 8.33126 9.68213 8.35474 9.69376C8.37827 9.70548 8.40645 9.69774 8.42075 9.67571L9.62681 7.81244Z" fill="white"/>
</g>
<defs>
<clipPath id="clip0_76_2">
<rect width="16" height="16" rx="4" fill="white"/>
</clipPath>
</defs>
</svg>
